<svg width="30" height="30" viewBox="0 0 30 30" fill="none" xmlns="http://www.w3.org/2000/svg">
<g clip-path="url(#clip0_94_720)">
<mask id="mask0_94_720" style="mask-type:luminance" maskUnits="userSpaceOnUse" x="2" y="2" width="26" height="26">
<path d="M2 2H28V28H2V2Z" fill="white"/>
</mask>
<g mask="url(#mask0_94_720)">
<path d="M3.11328 5.28796V3.8179C3.11328 3.02429 3.75658 2.38104 4.55029 2.38104H20.4166C21.2102 2.38104 21.8536 3.02429 21.8536 3.8179V4.25624" stroke="white" stroke-miterlimit="10" stroke-linecap="round" stroke-linejoin="round"/>
<path d="M21.8536 18.5016V26.1823C21.8536 26.9759 21.2102 27.6191 20.4166 27.6191H4.55029C3.75658 27.6191 3.11328 26.9759 3.11328 26.1823V6.96494" stroke="white" stroke-miterlimit="10" stroke-linecap="round" stroke-linejoin="round"/>
<path d="M11.573 9.50811L10.8822 9.75841C10.3257 9.96021 9.91682 10.4404 9.80515 11.0214L9.6558 11.8038C9.54469 12.3818 9.98817 12.918 10.5769 12.918H12.4936H14.3884C14.9725 12.918 15.4151 12.3899 15.3121 11.815L15.1729 11.0372C15.0674 10.447 14.6555 9.95818 14.0922 9.75379L13.375 9.49384" stroke="white" stroke-miterlimit="10" stroke-linecap="round" stroke-linejoin="round"/>
<path d="M13.0025 8.54012H13.3762V9.49425V9.74755V9.74811C12.8598 10.1986 12.0901 10.1986 11.5742 9.74755V9.50852V8.54012H11.9356" stroke="white" stroke-miterlimit="10" stroke-linecap="round" stroke-linejoin="round"/>
<path d="M13.906 6.15751V7.18111C13.906 7.98376 13.249 8.65976 12.4464 8.64427C11.6686 8.62929 11.043 7.99422 11.043 7.2131V6.15751C11.043 5.36705 11.6839 4.72614 12.4745 4.72614C13.2651 4.72614 13.906 5.36705 13.906 6.15751Z" stroke="white" stroke-miterlimit="10" stroke-linecap="round" stroke-linejoin="round"/>
<path d="M12.168 6.36202C12.4215 6.53986 12.9462 6.53183 13.4829 6.31693C13.6005 6.2699 13.7108 6.21597 13.812 6.15747" stroke="white" stroke-miterlimit="10" stroke-linecap="round" stroke-linejoin="round"/>
<path d="M6.48242 19.4387H18.3434" stroke="white" stroke-miterlimit="10" stroke-linecap="round" stroke-linejoin="round"/>
<path d="M6.48242 21.4921H18.3434" stroke="white" stroke-miterlimit="10" stroke-linecap="round" stroke-linejoin="round"/>
<path d="M6.48242 23.5449H18.3434" stroke="white" stroke-miterlimit="10" stroke-linecap="round" stroke-linejoin="round"/>
<path d="M6.48242 25.5996H18.3434" stroke="white" stroke-miterlimit="10" stroke-linecap="round" stroke-linejoin="round"/>
<path d="M6.48242 15.3312H18.3434" stroke="white" stroke-miterlimit="10" stroke-linecap="round" stroke-linejoin="round"/>
<path d="M6.48242 17.3849H18.3434" stroke="white" stroke-miterlimit="10" stroke-linecap="round" stroke-linejoin="round"/>
<path d="M5.45802 19.439C5.45802 19.6501 5.28684 19.8213 5.07569 19.8213C4.86449 19.8213 4.69336 19.6501 4.69336 19.439C4.69336 19.2279 4.86449 19.0568 5.07569 19.0568C5.28684 19.0568 5.45802 19.2279 5.45802 19.439Z" fill="white"/>
<path d="M5.45802 15.3308C5.45802 15.5419 5.28684 15.713 5.07569 15.713C4.86449 15.713 4.69336 15.5419 4.69336 15.3308C4.69336 15.1196 4.86449 14.9485 5.07569 14.9485C5.28684 14.9485 5.45802 15.1196 5.45802 15.3308Z" fill="white"/>
<path d="M5.45802 17.3853C5.45802 17.5964 5.28684 17.7676 5.07569 17.7676C4.86449 17.7676 4.69336 17.5964 4.69336 17.3853C4.69336 17.1742 4.86449 17.0031 5.07569 17.0031C5.28684 17.0031 5.45802 17.1742 5.45802 17.3853Z" fill="white"/>
<path d="M5.45802 21.4925C5.45802 21.7036 5.28684 21.8748 5.07569 21.8748C4.86449 21.8748 4.69336 21.7036 4.69336 21.4925C4.69336 21.2814 4.86449 21.1102 5.07569 21.1102C5.28684 21.1102 5.45802 21.2814 5.45802 21.4925Z" fill="white"/>
<path d="M5.45802 23.5456C5.45802 23.7567 5.28684 23.9279 5.07569 23.9279C4.86449 23.9279 4.69336 23.7567 4.69336 23.5456C4.69336 23.3345 4.86449 23.1633 5.07569 23.1633C5.28684 23.1633 5.45802 23.3345 5.45802 23.5456Z" fill="white"/>
<path d="M5.45802 25.599C5.45802 25.8101 5.28684 25.9813 5.07569 25.9813C4.86449 25.9813 4.69336 25.8101 4.69336 25.599C4.69336 25.3879 4.86449 25.2168 5.07569 25.2168C5.28684 25.2168 5.45802 25.3879 5.45802 25.599Z" fill="white"/>
<path d="M20.0977 13.3507V19.4012C20.0977 19.5715 20.2934 19.6668 20.4275 19.5619L21.7269 18.5445C21.7636 18.5154 21.8084 18.5011 21.8528 18.5011C21.8971 18.5011 21.942 18.5154 21.9787 18.5445L23.2781 19.5619C23.4121 19.6668 23.6084 19.5715 23.6084 19.4012V15.151" stroke="white" stroke-miterlimit="10" stroke-linecap="round" stroke-linejoin="round"/>
<path d="M26.8878 9.28913C26.8878 9.93009 26.1718 10.4241 25.9407 10.9815C25.7011 11.5593 25.8489 12.4127 25.4135 12.8481C24.978 13.2835 24.1245 13.1357 23.5466 13.3753C22.9892 13.6065 22.4951 14.3223 21.8541 14.3223C21.213 14.3223 20.7189 13.6065 20.1615 13.3753C19.5836 13.1357 18.7301 13.2835 18.2946 12.8481C17.8591 12.4127 18.007 11.5593 17.7674 10.9815C17.5363 10.4241 16.8203 9.93009 16.8203 9.28913C16.8203 8.64817 17.5363 8.15412 17.7674 7.59675C18.007 7.01896 17.8591 6.16558 18.2946 5.73013C18.7301 5.29473 19.5836 5.44256 20.1615 5.20297C20.7189 4.97181 21.213 4.256 21.8541 4.256C22.4951 4.256 22.9892 4.97181 23.5466 5.20297C24.1245 5.44261 24.978 5.29473 25.4135 5.73018C25.849 6.16558 25.7011 7.01896 25.9407 7.59675C26.1718 8.15412 26.8878 8.64817 26.8878 9.28913Z" stroke="white" stroke-miterlimit="10" stroke-linecap="round" stroke-linejoin="round"/>
<path d="M21.9372 6.80395L22.744 8.00894C22.7572 8.02869 22.7771 8.04311 22.8 8.04961L24.1955 8.44444C24.2641 8.46389 24.291 8.54676 24.2469 8.60282L23.3501 9.74235C23.3353 9.76109 23.3278 9.7844 23.3287 9.80822L23.3843 11.2572C23.3871 11.3285 23.3165 11.3797 23.2496 11.3551L21.8886 10.8544C21.8662 10.8462 21.8417 10.8462 21.8194 10.8544L20.4583 11.3551C20.3914 11.3797 20.3208 11.3285 20.3236 11.2572L20.3792 9.80822C20.3801 9.7844 20.3725 9.76109 20.3578 9.74235L19.461 8.60282C19.4168 8.54676 19.4438 8.46389 19.5125 8.44444L20.9079 8.04961C20.9308 8.04311 20.9506 8.02869 20.9639 8.00894L21.7707 6.80395C21.8104 6.74469 21.8976 6.74469 21.9372 6.80395Z" stroke="white" stroke-miterlimit="10" stroke-linecap="round" stroke-linejoin="round"/>
</g>
</g>
<defs>
<clipPath id="clip0_94_720">
<rect width="26" height="26" fill="white" transform="translate(2 2)"/>
</clipPath>
</defs>
</svg>
