<svg width="30" height="30" viewBox="0 0 30 30" fill="none" xmlns="http://www.w3.org/2000/svg">
<path d="M23.687 18.4815C23.0982 17.2541 20.992 15.5503 18.957 13.904C17.822 12.9865 16.7495 12.119 16.0658 11.4353C15.8945 11.2628 15.6383 11.2078 15.412 11.289C14.9908 11.4416 14.7308 11.559 14.5258 11.6503C14.2133 11.7902 14.1083 11.8378 13.687 11.8802C13.5008 11.899 13.3333 11.999 13.2295 12.154C12.3458 13.4752 11.4308 13.3627 10.8195 13.1578C10.6245 13.0928 10.5895 13.009 10.5708 12.929C10.4395 12.3803 11.0983 11.1028 11.952 10.249C13.9833 8.2165 15.0308 7.70773 17.2433 8.6965C19.7532 9.81898 22.2683 10.6978 22.2933 10.7065C22.6221 10.8202 22.9758 10.6477 23.0895 10.3215C23.202 9.99523 23.0307 9.63898 22.7045 9.52525C22.6795 9.51652 20.2145 8.65525 17.7545 7.55398C14.8883 6.27271 13.3157 7.11646 11.0695 9.364C10.2145 10.219 9.0532 11.949 9.3532 13.2178C9.48194 13.7578 9.86197 14.1578 10.4269 14.344C11.8432 14.8115 13.1357 14.364 14.0982 13.0865C14.4957 13.0253 14.712 12.9353 15.0369 12.789C15.1544 12.7365 15.2919 12.6753 15.4744 12.6015C16.1895 13.2728 17.1544 14.054 18.1707 14.8753C20.0082 16.3615 22.092 18.0465 22.5607 19.0215C22.792 19.5028 22.5432 19.8165 22.3744 19.9603C22.1269 20.1728 21.7882 20.2403 21.6045 20.1115C21.402 19.9727 21.1382 19.964 20.9295 20.089C20.7195 20.214 20.602 20.4502 20.6282 20.6927C20.6707 21.0903 20.307 21.3178 20.1495 21.3965C19.7494 21.599 19.332 21.564 19.1757 21.419C19.0007 21.2565 18.7494 21.209 18.5269 21.2915C18.3045 21.3752 18.1494 21.5803 18.1269 21.8177C18.0894 22.2277 17.7857 22.6215 17.3894 22.7752C17.1981 22.8477 16.9206 22.8915 16.6719 22.664C16.5169 22.524 16.3019 22.4702 16.1007 22.5189C15.897 22.5689 15.7332 22.7165 15.6619 22.9127C15.6382 22.9752 15.5844 23.1252 14.9994 23.1252C14.5832 23.1252 13.8344 22.844 13.4682 22.6014C13.0294 22.3127 10.2782 20.2602 7.90195 18.2702C7.5682 17.9889 6.9907 17.3864 6.4807 16.8539C6.02818 16.3814 5.61445 15.9527 5.40194 15.7727C5.13569 15.5477 4.74194 15.5814 4.52069 15.8465C4.2982 16.1102 4.33067 16.5052 4.59445 16.7277C4.78822 16.8915 5.16322 17.2877 5.57695 17.7189C6.13447 18.3014 6.71069 18.9039 7.09822 19.229C9.42574 21.1777 12.2232 23.2815 12.7807 23.6477C13.2407 23.9502 14.232 24.3752 14.9995 24.3752C15.6157 24.3752 16.0895 24.2339 16.4182 23.9577C16.8582 24.129 17.3582 24.1302 17.8395 23.9427C18.4082 23.7227 18.8757 23.279 19.1407 22.7415C19.6332 22.8465 20.197 22.7727 20.7094 22.5153C21.2107 22.2628 21.5732 21.8765 21.7532 21.4252C22.2507 21.4515 22.7631 21.2752 23.1869 20.9115C23.9045 20.2978 24.102 19.3428 23.687 18.4815Z" fill="white"/>
<path d="M12.5 8.125H6.87502C6.53002 8.125 6.25 8.40502 6.25 8.75002C6.25 9.09502 6.53002 9.37504 6.87502 9.37504H12.5C12.845 9.37504 13.125 9.09502 13.125 8.75002C13.125 8.40502 12.845 8.125 12.5 8.125Z" fill="white"/>
<path d="M25.5181 17.1514C25.3243 16.8652 24.9369 16.7864 24.6506 16.9814L22.8232 18.2089C22.5369 18.4014 22.4606 18.7901 22.6532 19.0764C22.7744 19.2551 22.9719 19.3526 23.1732 19.3526C23.292 19.3526 23.4132 19.3189 23.5207 19.2464L25.3482 18.0189C25.6344 17.8264 25.7106 17.4377 25.5181 17.1514Z" fill="white"/>
<path d="M21.6378 20.1335C21.1903 19.781 19.1891 17.7323 17.9516 16.4423C17.7128 16.1923 17.3166 16.1836 17.0678 16.4236C16.8178 16.6623 16.8103 17.0585 17.0491 17.3073C17.3703 17.6423 20.204 20.5961 20.8628 21.1161C20.9765 21.2061 21.1141 21.2499 21.2491 21.2499C21.4328 21.2499 21.6166 21.1674 21.7415 21.0111C21.9553 20.741 21.9091 20.3473 21.6378 20.1335Z" fill="white"/>
<path d="M19.1409 21.3871C18.3922 20.7883 16.511 18.7896 16.0859 18.3271C15.8509 18.0721 15.4571 18.0571 15.2021 18.2896C14.9484 18.5233 14.9309 18.9196 15.1646 19.1734C15.1871 19.1971 17.4322 21.6209 18.3596 22.3634C18.4747 22.4546 18.6134 22.4996 18.7496 22.4996C18.9322 22.4996 19.1146 22.4183 19.2384 22.2659C19.4535 21.9958 19.4097 21.6021 19.1409 21.3871Z" fill="white"/>
<path d="M16.6532 22.6463C15.7619 21.8951 13.9382 19.9538 13.5819 19.5725C13.3457 19.3201 12.9494 19.3063 12.6982 19.5425C12.4457 19.7788 12.4331 20.1738 12.6682 20.4263C13.1807 20.975 14.9257 22.8251 15.8469 23.6026C15.9644 23.7013 16.1069 23.75 16.2494 23.75C16.4269 23.75 16.6044 23.6738 16.7282 23.5276C16.9507 23.2625 16.9169 22.8688 16.6532 22.6463Z" fill="white"/>
<path d="M7.305 7.04587C6.23373 6.03085 1.95 5.70208 0.66252 5.62585C0.485039 5.61712 0.32127 5.67583 0.196289 5.7946C0.07125 5.91208 0 6.07708 0 6.24958V17.4996C0 17.8446 0.28002 18.1246 0.62502 18.1246H4.37502C4.64502 18.1246 4.88502 17.9509 4.96875 17.6933C5.05998 17.4133 7.21377 10.8034 7.49748 7.55335C7.51377 7.36333 7.44375 7.17583 7.305 7.04587ZM3.91875 16.8746H1.24998V6.9196C3.25875 7.07833 5.42625 7.42333 6.21375 7.80583C5.88252 10.5433 4.38375 15.4071 3.91875 16.8746Z" fill="white"/>
<path d="M29.3742 6.87476C24.4667 6.87476 21.7442 8.13101 21.6305 8.18351C21.468 8.25974 21.3467 8.40101 21.2967 8.57227C21.2467 8.74354 21.2717 8.9273 21.3654 9.07976C22.1379 10.3235 24.5567 17.231 25.0217 18.916C25.0967 19.1872 25.343 19.3747 25.6242 19.3747H29.3742C29.7192 19.3747 29.9992 19.0947 29.9992 18.7497V7.49972C29.9992 7.15349 29.7192 6.87476 29.3742 6.87476ZM28.7493 18.1248H26.0917C25.4992 16.1947 23.7492 11.1622 22.773 9.08228C23.7267 8.75855 25.7755 8.20226 28.7493 8.1323V18.1248Z" fill="white"/>
</svg>
