<svg width="19" height="18" viewBox="0 0 19 18" fill="none" xmlns="http://www.w3.org/2000/svg">
<g clip-path="url(#clip0_94_649)">
<path d="M18.2672 3.75358C17.6174 2.9812 16.4178 2.66615 14.1268 2.66615H5.81052C3.46709 2.66615 2.24716 3.00153 1.59985 3.82384C0.96875 4.62559 0.96875 5.80691 0.96875 7.44189V10.5582C0.96875 13.7256 1.71755 15.3338 5.81052 15.3338H14.1269C16.1136 15.3338 17.2145 15.0558 17.9267 14.3742C18.6571 13.6752 18.9688 12.534 18.9688 10.5582V7.44189C18.9688 5.71767 18.9199 4.52938 18.2672 3.75358ZM12.5248 9.43026L8.74841 11.4039C8.66398 11.4481 8.57166 11.4699 8.47945 11.4699C8.37505 11.4699 8.27089 11.4418 8.17862 11.386C8.00489 11.2807 7.89881 11.0924 7.89881 10.8893V6.95462C7.89881 6.75186 8.0046 6.56373 8.17798 6.4584C8.35142 6.35307 8.56713 6.34587 8.74707 6.43935L12.5235 8.40031C12.7156 8.50006 12.8363 8.69841 12.8366 8.91482C12.8368 9.1314 12.7167 9.33004 12.5248 9.43026Z" fill="white"/>
</g>
<defs>
<clipPath id="clip0_94_649">
<rect width="18" height="18" fill="white" transform="translate(0.96875)"/>
</clipPath>
</defs>
</svg>
